<svg viewBox="0 0 48 48" fill="none" xmlns="http://www.w3.org/2000/svg">
  <defs>
    <linearGradient id="logoGradient" x1="0%" y1="0%" x2="100%" y2="100%">
      <stop offset="0%" stop-color="#10B981" />
      <stop offset="50%" stop-color="#14B8A6" />
      <stop offset="100%" stop-color="#0D9488" />
    </linearGradient>
    <linearGradient id="logoGradientDark" x1="0%" y1="0%" x2="100%" y2="100%">
      <stop offset="0%" stop-color="#059669" />
      <stop offset="100%" stop-color="#0F766E" />
    </linearGradient>
  </defs>

  <!-- Vault body -->
  <rect x="6" y="12" width="36" height="30" rx="4" fill="url(#logoGradient)"/>

  <!-- Vault top/handle -->
  <path d="M16 12V10C16 6.68629 18.6863 4 22 4H26C29.3137 4 32 6.68629 32 10V12" stroke="url(#logoGradient)" stroke-width="4" stroke-linecap="round" fill="none"/>

  <!-- Vault door circle -->
  <circle cx="24" cy="27" r="10" fill="url(#logoGradientDark)"/>

  <!-- Inner circle accent -->
  <circle cx="24" cy="27" r="7" stroke="#ffffff" stroke-width="1.5" fill="none" opacity="0.3"/>

  <!-- Heart in center -->
  <path d="M24 32.5C24 32.5 18 28.5 18 25C18 22.5 20 21 22 21C23.2 21 24 21.8 24 21.8C24 21.8 24.8 21 26 21C28 21 30 22.5 30 25C30 28.5 24 32.5 24 32.5Z" fill="#ffffff"/>

  <!-- Vault handle dots -->
  <circle cx="17" cy="27" r="1.5" fill="#ffffff" opacity="0.6"/>
  <circle cx="31" cy="27" r="1.5" fill="#ffffff" opacity="0.6"/>
  <circle cx="24" cy="20" r="1.5" fill="#ffffff" opacity="0.6"/>
  <circle cx="24" cy="34" r="1.5" fill="#ffffff" opacity="0.6"/>
</svg>
